<svg xmlns="http://www.w3.org/2000/svg" viewBox="0 0 235.94 147"><defs><style>.cls-1{fill:#eaeaea;}.cls-2{fill:#ffbe00;}.cls-3{fill:#3395ed;}.cls-4{fill:#595757;}.cls-5{fill:#585656;}</style></defs><g id="Layer_2" data-name="Layer 2"><g id="Layer_1-2" data-name="Layer 1"><path class="cls-1" d="M38.57,6.58a5.47,5.47,0,0,1,9.47,0L62.54,31.7,77.05,56.82A5.47,5.47,0,0,1,72.31,65h-58a5.47,5.47,0,0,1-4.74-8.2L24.07,31.7Z"/><path class="cls-2" d="M117.19,0A32.52,32.52,0,0,0,84.68,32.51V55.68a3.64,3.64,0,0,0,.07.74c.34,1.88,2.35,9.49,12.54,9.59l.4,0s18.52-1,19.5-1a32.51,32.51,0,1,0,0-65Z"/><path class="cls-3" d="M215.79,18.65a13.74,13.74,0,0,0-12.27-.74,14,14,0,0,0,.37-3.13,13.79,13.79,0,0,0-27.58,0,14,14,0,0,0,.34,3,13.78,13.78,0,0,0-12.09,24.7,13.57,13.57,0,0,0,3.17,1.32l-.34.53a13.79,13.79,0,0,0,23.28,14.74,13.54,13.54,0,0,0,4.43,4.1A13.78,13.78,0,0,0,213.44,43.6a13.77,13.77,0,0,0,2.35-25Z"/><path class="cls-4" d="M230.09,144.4q0-27.43,0-54.87c0-3,0-3,2.93-3,1,0,2.1.11,2.91-.74v-5.5c-3.23,0-6.46.15-9.7.07-1.53,0-2.16.29-2.1,2,.13,3.79,0,7.57,0,11.36q0,23.27,0,46.52c0,1.21,0,2-1.67,2-10.75-.08-21.5-.06-32.24,0-1.19,0-1.61-.35-1.58-1.56.07-2.93.06-5.86,0-8.79-.07-4.08.78-3.46-3.57-3.57-1.2,0-1.6.36-1.58,1.56.07,3.48,0,7,.06,10.44.05,1.55-.46,1.94-2,1.93-8.18-.07-16.36,0-24.54,0-3.28,0-3.22,0-3.29,3.3a1.94,1.94,0,0,0,.4,1.51h75.6A6,6,0,0,0,230.09,144.4Z"/><path class="cls-5" d="M2.34,108.38q13.38,0,26.74,0c4.63,0,4.6,0,4.63,4.71,0,3.47-.51,2.92,3,3.08,1.65.07,2.36-.38,2.15-2.12a27.74,27.74,0,0,1,0-3.29c0-2.37,0-2.38,2.39-2.38,9.71,0,19.41,0,29.12,0,1.53,0,2.15-.44,1.93-2a5.64,5.64,0,0,1,0-.92c0-2.45,0-2.45-2.48-2.45q-33.61,0-67.21,0a5.86,5.86,0,0,0-2.53.26v4.77A5.31,5.31,0,0,0,2.34,108.38Z"/><path class="cls-4" d="M1.73,97.71Q18.18,90.86,34.63,84a3.5,3.5,0,0,1,3-.11c7.52,3.18,15.07,6.31,22.61,9.45l12,5c0-1.51,0-2.72,0-3.93A1.61,1.61,0,0,0,71,92.63Q54.21,85.48,37.41,78.22a2.78,2.78,0,0,0-2.42,0Q23.83,83.1,12.64,87.85C8.44,89.61,4.34,91.64,0,93.1v5.12A3.52,3.52,0,0,0,1.73,97.71Z"/><path class="cls-4" d="M146.9,121.49c0-1.36-.3-1.95-1.82-1.95q-31.68.08-63.37,0c-1.39,0-1.79.49-1.76,1.82.06,3.72,0,7.44,0,11.17,0,4-.69,3.36,3.48,3.49,1.36,0,1.63-.53,1.6-1.73-.07-2.5.07-5,0-7.51-.07-1.61.31-2.19,2.08-2.19q26.39.11,52.76,0c1.47,0,2,.34,2,1.91-.1,4.4,0,8.79,0,13.19,0,2.47,0,2.48-2.43,2.48H9c-3.78,0-3.78,0-3.78-3.71,0-2.48,0-2.48,2.45-2.48q31.33,0,62.65,0c1.79,0,2.26-.52,2.21-2.26-.12-4-.14-7.94,0-11.9.06-1.88-.53-2.35-2.37-2.35q-33.89.09-67.78,0a5.32,5.32,0,0,0-2.34.27v4.76c.93,1,2.15.74,3.28.74H63.16c3.09,0,3.46.43,3.11,3.54a2.13,2.13,0,0,1-.36,1,4.33,4.33,0,0,1-3.11.73H3.93l-2.19,0a2.18,2.18,0,0,0-.87.16c-.51.23-.73.72-.7,1.53.06,2.5,0,5,0,7.5S0,144.63.28,147H146.91C146.9,138.5,146.86,130,146.9,121.49Z"/><path class="cls-4" d="M155.35,98.42a17,17,0,0,0,.06,17.16c3.18,5.76,8.58,7.82,14.92,7.82,10.14,0,20.27,0,30.41,0a26.74,26.74,0,0,0,4.72-.44c6.16-1.13,12.57-7.25,12.24-16.41s-6.7-15.93-16-16c-5.43,0-10.87,0-16.3,0s-10.75,0-16.12,0C163.21,90.6,158.33,93.06,155.35,98.42Z"/><path class="cls-5" d="M82,110.35c8.37-.07,16.73,0,25.1,0s16.73,0,25.09,0c1.55,0,2.12-.45,1.89-1.95a2.84,2.84,0,0,1,0-.92c.35-1.9-.49-2.3-2.31-2.29-14.77.07-29.55,0-44.32,0-2.43,0-2.43,0-2.43-2.51,0-4.94.08-9.89,0-14.83,0-1.76.45-2.27,2.23-2.26,14.47.07,28.94,0,43.41,0,3.49,0,3.41,0,3.49-3.49,0-1.47-.45-1.84-1.87-1.84q-25.18.07-50.37,0c-1.56,0-2,.53-2,2,.06,8.67.08,17.34,0,26C79.91,110.05,80.48,110.36,82,110.35Z"/><path class="cls-5" d="M141.79,107.28c0,3,0,3,3,3.07,1.63.06,2.19-.35,2.17-2.1-.11-6.77,0-13.55-.1-20.32,0-2,.6-2.32,2.38-2.3,7.51.09,15,.07,22.53,0,4,0,3.31.63,3.47-3.51.06-1.54-.55-1.82-1.91-1.8-4.95.06-9.89,0-14.84,0s-9.89,0-14.84,0c-1.43,0-1.87.38-1.86,1.85C141.82,90.55,141.79,98.91,141.79,107.28Z"/><path class="cls-5" d="M184.65,85.69c5.13,0,10.26,0,15.39,0,4.64,0,9.28,0,13.92,0,3.71,0,3.13.34,3.29-3.2.09-1.75-.56-2.14-2.19-2.13-7.63.07-15.26,0-22.89,0-4.18,0-4.14,0-4.19-4.26,0-4,.81-3.39-3.63-3.51-1.28,0-1.53.51-1.51,1.63.06,3.24.08,6.47,0,9.71C182.8,85.35,183.35,85.71,184.65,85.69Z"/></g></g></svg>